<svg xmlns="http://www.w3.org/2000/svg" width="20" height="20" viewBox="0 0 20 20" fill="none">
<path fill-rule="evenodd" clip-rule="evenodd" d="M11.9982 1.98884C12.1241 1.86297 12.2832 1.77556 12.457 1.73682C12.6308 1.69808 12.812 1.70962 12.9794 1.77009C14.3634 2.27195 15.5983 3.11487 16.57 4.22081C17.5416 5.32676 18.2185 6.65997 18.538 8.09703C18.8575 9.53408 18.8092 11.0285 18.3977 12.442C17.9862 13.8554 17.2247 15.1422 16.1837 16.1831C15.1428 17.2241 13.856 17.9856 12.4425 18.3971C11.0291 18.8087 9.53465 18.8569 8.09759 18.5374C6.66054 18.2179 5.32732 17.541 4.22138 16.5694C3.11543 15.5978 2.27251 14.3628 1.77066 12.9788C1.7101 12.8113 1.69854 12.6299 1.73735 12.456C1.77616 12.2821 1.86372 12.1229 1.98978 11.9969C2.11583 11.871 2.27517 11.7836 2.44911 11.745C2.62305 11.7064 2.8044 11.7181 2.97191 11.7788C4.201 12.2247 5.53175 12.3109 6.80809 12.0273C8.08443 11.7436 9.25341 11.1019 10.1779 10.1774C11.1025 9.25285 11.7442 8.08386 12.0278 6.80753C12.3115 5.53119 12.2253 4.20043 11.7794 2.97134C11.7187 2.80373 11.707 2.62227 11.7457 2.44825C11.7845 2.27423 11.872 2.11486 11.9982 1.98884V1.98884ZM14.0182 4.42009C14.1508 5.71314 13.9938 7.01951 13.5584 8.24426C13.123 9.469 12.4202 10.5814 11.5011 11.5005C10.5819 12.4196 9.46957 13.1224 8.24482 13.5578C7.02007 13.9932 5.71371 14.1503 4.42066 14.0176C5.00312 14.8254 5.75413 15.497 6.62171 15.9859C7.4893 16.4748 8.45275 16.7695 9.44541 16.8494C10.4381 16.9293 11.4362 16.7926 12.3709 16.4487C13.3055 16.1049 14.1543 15.5621 14.8585 14.8579C15.5627 14.1537 16.1054 13.3049 16.4493 12.3703C16.7932 11.4357 16.9298 10.4375 16.8499 9.44485C16.77 8.45218 16.4754 7.48873 15.9865 6.62115C15.4975 5.75356 14.8259 5.00256 14.0182 4.42009V4.42009Z" fill="white"/>
</svg>