<svg xmlns="http://www.w3.org/2000/svg" width="20" height="20" viewBox="0 0 20 20" fill="none">
<path fill-rule="evenodd" clip-rule="evenodd" d="M10 13.125C10.8288 13.125 11.6237 12.7958 12.2097 12.2097C12.7958 11.6237 13.125 10.8288 13.125 10C13.125 9.1712 12.7958 8.37634 12.2097 7.79029C11.6237 7.20424 10.8288 6.875 10 6.875C9.1712 6.875 8.37634 7.20424 7.79029 7.79029C7.20424 8.37634 6.875 9.1712 6.875 10C6.875 10.8288 7.20424 11.6237 7.79029 12.2097C8.37634 12.7958 9.1712 13.125 10 13.125V13.125ZM10 15C11.3261 15 12.5979 14.4732 13.5355 13.5355C14.4732 12.5979 15 11.3261 15 10C15 8.67392 14.4732 7.40215 13.5355 6.46447C12.5979 5.52678 11.3261 5 10 5C8.67392 5 7.40215 5.52678 6.46447 6.46447C5.52678 7.40215 5 8.67392 5 10C5 11.3261 5.52678 12.5979 6.46447 13.5355C7.40215 14.4732 8.67392 15 10 15V15ZM10 0C10.2486 0 10.4871 0.098772 10.6629 0.274587C10.8387 0.450403 10.9375 0.68886 10.9375 0.9375V2.8125C10.9375 3.06114 10.8387 3.2996 10.6629 3.47541C10.4871 3.65123 10.2486 3.75 10 3.75C9.75136 3.75 9.5129 3.65123 9.33709 3.47541C9.16127 3.2996 9.0625 3.06114 9.0625 2.8125V0.9375C9.0625 0.68886 9.16127 0.450403 9.33709 0.274587C9.5129 0.098772 9.75136 0 10 0V0ZM10 16.25C10.2486 16.25 10.4871 16.3488 10.6629 16.5246C10.8387 16.7004 10.9375 16.9389 10.9375 17.1875V19.0625C10.9375 19.3111 10.8387 19.5496 10.6629 19.7254C10.4871 19.9012 10.2486 20 10 20C9.75136 20 9.5129 19.9012 9.33709 19.7254C9.16127 19.5496 9.0625 19.3111 9.0625 19.0625V17.1875C9.0625 16.9389 9.16127 16.7004 9.33709 16.5246C9.5129 16.3488 9.75136 16.25 10 16.25ZM2.92875 2.92875C3.01581 2.84163 3.11919 2.77252 3.23297 2.72537C3.34675 2.67822 3.46871 2.65395 3.59188 2.65395C3.71504 2.65395 3.837 2.67822 3.95078 2.72537C4.06456 2.77252 4.16794 2.84163 4.255 2.92875L5.58 4.255C5.7456 4.43272 5.83575 4.66778 5.83147 4.91065C5.82718 5.15353 5.72879 5.38526 5.55703 5.55703C5.38526 5.72879 5.15353 5.82718 4.91065 5.83147C4.66778 5.83575 4.43272 5.7456 4.255 5.58L2.93 4.255C2.75444 4.07922 2.65583 3.84094 2.65583 3.5925C2.65583 3.34406 2.75444 3.10578 2.93 2.93L2.92875 2.92875ZM14.42 14.42C14.5958 14.2444 14.8341 14.1458 15.0825 14.1458C15.3309 14.1458 15.5692 14.2444 15.745 14.42L17.0712 15.745C17.2421 15.9217 17.3367 16.1585 17.3347 16.4043C17.3327 16.6501 17.2342 16.8853 17.0605 17.0592C16.8867 17.2331 16.6516 17.3318 16.4058 17.3341C16.16 17.3363 15.9231 17.2419 15.7463 17.0712L14.42 15.7463C14.3329 15.6592 14.2638 15.5558 14.2166 15.442C14.1695 15.3282 14.1452 15.2063 14.1452 15.0831C14.1452 14.96 14.1695 14.838 14.2166 14.7242C14.2638 14.6104 14.3329 14.5071 14.42 14.42V14.42ZM20 10C20 10.2486 19.9012 10.4871 19.7254 10.6629C19.5496 10.8387 19.3111 10.9375 19.0625 10.9375H17.1875C16.9389 10.9375 16.7004 10.8387 16.5246 10.6629C16.3488 10.4871 16.25 10.2486 16.25 10C16.25 9.75136 16.3488 9.5129 16.5246 9.33709C16.7004 9.16127 16.9389 9.0625 17.1875 9.0625H19.0625C19.3111 9.0625 19.5496 9.16127 19.7254 9.33709C19.9012 9.5129 20 9.75136 20 10ZM3.75 10C3.75 10.2486 3.65123 10.4871 3.47541 10.6629C3.2996 10.8387 3.06114 10.9375 2.8125 10.9375H0.9375C0.68886 10.9375 0.450403 10.8387 0.274587 10.6629C0.098772 10.4871 0 10.2486 0 10C0 9.75136 0.098772 9.5129 0.274587 9.33709C0.450403 9.16127 0.68886 9.0625 0.9375 9.0625H2.8125C3.06114 9.0625 3.2996 9.16127 3.47541 9.33709C3.65123 9.5129 3.75 9.75136 3.75 10ZM17.0712 2.92875C17.1584 3.01581 17.2275 3.11919 17.2746 3.23297C17.3218 3.34675 17.346 3.46871 17.346 3.59188C17.346 3.71504 17.3218 3.837 17.2746 3.95078C17.2275 4.06456 17.1584 4.16794 17.0712 4.255L15.745 5.58C15.6592 5.67211 15.5557 5.74599 15.4407 5.79723C15.3257 5.84847 15.2015 5.87602 15.0757 5.87824C14.9498 5.88046 14.8247 5.8573 14.708 5.81015C14.5913 5.763 14.4852 5.69282 14.3962 5.6038C14.3072 5.51477 14.237 5.40873 14.1898 5.292C14.1427 5.17526 14.1195 5.05023 14.1218 4.92435C14.124 4.79847 14.1515 4.67433 14.2028 4.55933C14.254 4.44433 14.3279 4.34083 14.42 4.255L15.745 2.93C15.9208 2.75444 16.1591 2.65583 16.4075 2.65583C16.6559 2.65583 16.8942 2.75444 17.07 2.93L17.0712 2.92875ZM5.58 14.42C5.75556 14.5958 5.85418 14.8341 5.85418 15.0825C5.85418 15.3309 5.75556 15.5692 5.58 15.745L4.255 17.0712C4.16856 17.1608 4.06515 17.2323 3.95079 17.2815C3.83644 17.3307 3.71343 17.3566 3.58895 17.3577C3.46447 17.3589 3.34101 17.3352 3.22577 17.2881C3.11054 17.241 3.00583 17.1715 2.91776 17.0835C2.8297 16.9955 2.76004 16.8909 2.71284 16.7757C2.66565 16.6605 2.64187 16.5371 2.6429 16.4126C2.64392 16.2881 2.66972 16.1651 2.7188 16.0507C2.76788 15.9363 2.83925 15.8328 2.92875 15.7463L4.25375 14.42C4.34081 14.3329 4.44419 14.2638 4.55797 14.2166C4.67175 14.1695 4.79371 14.1452 4.91688 14.1452C5.04004 14.1452 5.162 14.1695 5.27578 14.2166C5.38956 14.2638 5.49294 14.3329 5.58 14.42V14.42Z" fill="#000" fill-opacity=".87"/>
</svg>